<?xml version="1.0" standalone="no"?>
<!DOCTYPE svg PUBLIC "-//W3C//DTD SVG 20010904//EN"
 "http://www.w3.org/TR/2001/REC-SVG-20010904/DTD/svg10.dtd">
<svg version="1.0" xmlns="http://www.w3.org/2000/svg"
 width="700.000000pt" height="700.000000pt" viewBox="0 0 700.000000 700.000000"
 preserveAspectRatio="xMidYMid meet">
<metadata>
Created by potrace 1.11, written by Peter Selinger 2001-2013
</metadata>
<g transform="translate(0.000000,700.000000) scale(0.100000,-0.100000)"
fill="#000000" stroke="none">
<path d="M3328 6995 c-2 -1 -48 -5 -104 -9 -55 -4 -109 -8 -120 -10 -10 -2
-46 -7 -79 -11 -88 -10 -293 -51 -404 -81 -430 -113 -812 -294 -1177 -555 -61
-44 -120 -88 -130 -97 -11 -9 -35 -30 -54 -46 -117 -96 -287 -262 -386 -376
-21 -24 -47 -54 -57 -65 -68 -74 -202 -268 -249 -360 -136 -268 -198 -515
-192 -763 3 -142 6 -168 29 -267 112 -485 527 -920 1190 -1250 195 -97 465
-209 476 -198 7 8 88 187 93 208 2 6 11 28 21 50 24 54 904 2126 994 2340 40
94 76 179 81 190 22 50 54 124 130 305 45 107 89 209 97 227 l15 31 90 -1 91
-2 64 -145 c36 -80 84 -190 108 -245 24 -55 70 -161 103 -235 391 -892 574
-1308 582 -1325 36 -77 83 -183 90 -200 7 -19 186 -427 215 -490 7 -16 64
-145 125 -285 62 -140 163 -371 226 -513 63 -142 114 -262 114 -267 0 -18 31
-16 265 16 99 14 196 27 215 30 19 3 55 9 80 14 25 6 61 12 80 15 28 5 228 44
300 60 166 36 455 110 543 139 62 21 131 40 139 38 8 -2 19 43 38 163 25 156
34 590 17 765 -5 41 -10 98 -13 125 -2 28 -9 75 -14 105 -5 30 -12 73 -16 95
-12 81 -56 264 -95 395 -111 372 -305 758 -537 1070 -190 255 -452 520 -698
707 -101 76 -290 203 -304 203 -5 0 -10 5 -10 10 0 6 -5 10 -10 10 -6 0 -29
12 -53 27 -69 44 -304 158 -417 203 -99 40 -167 64 -285 103 -60 20 -306 83
-355 91 -19 3 -44 7 -55 10 -11 2 -45 7 -75 12 -30 4 -57 8 -60 9 -9 2 -145
18 -185 21 -49 5 -473 13 -477 9z"/>
<path d="M3341 4928 c-8 -18 -34 -73 -57 -123 -80 -173 -117 -255 -174 -390
-23 -55 -48 -113 -56 -130 -17 -37 -254 -606 -258 -620 -2 -5 -8 -22 -14 -36
-5 -14 -67 -165 -137 -335 -70 -170 -145 -351 -167 -403 -25 -59 -36 -97 -30
-103 15 -15 377 -105 612 -152 53 -10 137 -26 170 -31 19 -3 60 -10 90 -15 30
-5 75 -12 100 -15 66 -8 133 -17 152 -20 9 -2 49 -7 90 -10 40 -4 89 -9 108
-10 19 -2 80 -7 135 -10 55 -4 123 -8 150 -10 72 -5 316 -8 319 -4 3 3 -21 64
-84 216 -5 12 -25 62 -45 110 -20 48 -42 102 -49 118 -17 37 -216 520 -263
635 -18 47 -40 99 -48 115 -7 17 -74 176 -148 355 -308 747 -372 900 -377 900
-3 0 -12 -15 -19 -32z"/>
<path d="M4 3355 c9 -221 39 -435 92 -660 29 -124 88 -325 109 -370 7 -16 17
-43 21 -60 4 -16 10 -34 14 -40 4 -5 17 -37 30 -70 35 -89 142 -308 200 -410
75 -130 258 -399 290 -425 3 -3 13 -15 21 -27 43 -63 227 -259 331 -354 l77
-69 50 105 c28 59 51 108 51 109 0 2 57 127 126 277 69 151 198 443 286 649
88 206 166 388 173 405 17 37 23 33 -135 79 -479 140 -933 344 -1275 572 -157
105 -258 186 -392 317 l-73 71 4 -99z"/>
<path d="M6760 2666 c-260 -106 -595 -213 -850 -271 -137 -32 -258 -57 -360
-75 -69 -13 -126 -24 -128 -25 -2 -2 98 -232 145 -335 9 -19 102 -228 207
-465 106 -236 195 -436 200 -443 6 -10 15 -5 38 20 16 18 51 56 77 83 67 70
204 243 282 355 171 246 316 528 421 815 30 82 130 409 124 404 -1 0 -71 -29
-156 -63z"/>
<path d="M2261 2348 c-5 -13 -66 -167 -136 -343 -200 -504 -295 -745 -321
-815 -13 -36 -28 -74 -33 -85 -36 -78 -118 -329 -125 -382 -3 -24 -9 -62 -13
-85 -14 -90 -15 -87 79 -144 110 -67 337 -182 449 -228 168 -68 456 -160 568
-181 14 -3 40 -7 56 -10 17 -3 38 -8 47 -11 25 -8 57 -13 111 -19 28 -3 53 -7
56 -9 3 -2 38 -7 76 -11 39 -4 86 -10 105 -12 19 -2 150 -6 290 -7 232 -3 311
2 515 28 321 41 723 163 1028 312 107 52 111 57 110 149 -1 47 -3 69 -19 170
-12 76 -88 287 -183 510 -26 60 -45 106 -106 260 -37 94 -75 188 -85 210 -9
22 -63 156 -120 297 l-103 257 -106 -6 c-256 -16 -865 -4 -1121 21 -36 4 -90
9 -120 12 -115 10 -281 30 -330 39 -14 3 -41 7 -60 9 -33 4 -126 19 -195 31
-16 3 -77 15 -134 26 -57 12 -116 23 -129 25 -14 3 -29 7 -34 10 -4 3 -12 -5
-17 -18z"/>
</g>
</svg>
